<?xml version="1.0" encoding="utf-8"?>
<!-- Generator: Adobe Illustrator 21.0.0, SVG Export Plug-In . SVG Version: 6.00 Build 0)  -->
<svg version="1.1" id="Camada_1" xmlns="http://www.w3.org/2000/svg" xmlns:xlink="http://www.w3.org/1999/xlink" x="0px" y="0px"
	 viewBox="0 0 30 30" style="enable-background:new 0 0 30 30;" xml:space="preserve">
<style type="text/css">
	.st0{fill:#FFFFFF;}
</style>
<title>Artboard 11</title>
<g>
	<g>
		<path class="st0" d="M14.8,17.5L27.7,4.6c-0.1,0-0.1,0-0.2,0H2.5c-0.2,0-0.3,0.1-0.5,0.1L14.8,17.5z"/>
	</g>
	<path class="st0" d="M29.6,23.8c0-0.1,0-0.3,0-0.4V6.6c0-0.3-0.1-0.6-0.2-0.8l-9,9L29.6,23.8z"/>
	<g>
		<path class="st0" d="M9,14.7L0.5,6.1c0,0.2-0.1,0.3-0.1,0.5v16.6L9,14.7z"/>
		<path class="st0" d="M19.1,16.2l-3.6,3.6c-0.2,0.2-0.5,0.3-0.7,0.3s-0.5-0.1-0.7-0.3l-3.7-3.7l-9.1,9c0.3,0.2,0.7,0.4,1.2,0.4
			h25.1c0.3,0,0.6-0.1,0.8-0.2L19.1,16.2z"/>
	</g>
</g>
</svg>
