<?xml version="1.0" encoding="utf-8"?>
<!-- Generator: Adobe Illustrator 21.0.0, SVG Export Plug-In . SVG Version: 6.00 Build 0)  -->
<svg version="1.1" id="Camada_1" xmlns="http://www.w3.org/2000/svg" xmlns:xlink="http://www.w3.org/1999/xlink" x="0px" y="0px"
	 viewBox="0 0 30 30" style="enable-background:new 0 0 30 30;" xml:space="preserve">
<style type="text/css">
	.st0{fill:#FFFFFF;}
</style>
<g>
	<path class="st0" d="M23.6,1.1c0-0.6-0.5-1-1-1H7.5c-0.6,0-1,0.5-1,1V4h17.1V1.1z M25.5,5.3h-21c-1.6,0-2.9,1.5-2.9,3.3v8.2
		c0,1.8,1.3,3.3,2.9,3.3h0.9v-2.9c0-1.1,0.9-2,2-2h15.1c1.1,0,2,0.9,2,2V20h0.9c1.6,0,2.9-1.5,2.9-3.3V8.6
		C28.4,6.8,27.1,5.3,25.5,5.3z M21.5,9.4c-0.6,0-1.1-0.5-1.1-1.1c0-0.6,0.5-1.1,1.1-1.1s1.1,0.5,1.1,1.1C22.6,8.9,22.1,9.4,21.5,9.4
		z M25.4,9.4c-0.6,0-1.1-0.5-1.1-1.1c0-0.6,0.5-1.1,1.1-1.1s1.1,0.5,1.1,1.1C26.5,8.9,26,9.4,25.4,9.4z M21,24.4h-3.6
		c0,0-0.1,0-0.1,0.1c0,0-0.1,0.1-0.1,0.1v3.7H9v-11H7.3v11.8c0,0.2,0.1,0.4,0.2,0.6c0.2,0.2,0.4,0.2,0.6,0.2h9.4
		c0.2,0,0.4-0.1,0.6-0.2l4.3-4.3c0.2-0.2,0.2-0.4,0.2-0.6v-7.6H21C21,17.3,21,24.4,21,24.4z"/>
</g>
<title>Artboard 11</title>
</svg>
