<?xml version="1.0" encoding="utf-8"?>
<!-- Generator: Adobe Illustrator 21.0.0, SVG Export Plug-In . SVG Version: 6.00 Build 0)  -->
<svg version="1.1" id="Camada_1" xmlns="http://www.w3.org/2000/svg" xmlns:xlink="http://www.w3.org/1999/xlink" x="0px" y="0px"
	 viewBox="0 0 30 30" style="enable-background:new 0 0 30 30;" xml:space="preserve">
<style type="text/css">
	.st0{fill:#FFFFFF;}
</style>
<title>Artboard 11</title>
<g>
	<path class="st0" d="M22.5,7.7V4.2c0-1.9-1.5-3.4-3.3-3.4H7.8c-1.9,0-3.4,1.6-3.3,3.4v21.6c0,1.9,1.5,3.4,3.3,3.4h11.4
		c1.9,0,3.4-1.6,3.3-3.4v-3.5h-2.6v2.1c0,0.1-0.1,0.2-0.2,0.2H7.2c-0.1,0-0.2-0.1-0.2-0.2V5.7c0-0.1,0.1-0.2,0.2-0.2h12.5
		c0.1,0,0.2,0.1,0.2,0.2v2.1H22.5z M12.5,26h1.9c0.5,0,0.8,0.4,0.8,0.8c0,0.5-0.4,0.8-0.8,0.8h-1.9c-0.5,0-0.8-0.4-0.8-0.8
		C11.7,26.4,12.1,26,12.5,26z"/>
	<path class="st0" d="M23.8,9.8h-9.2c-0.9,0-1.7,0.8-1.7,1.7h0v7c0,0.9,0.8,1.7,1.7,1.7h1.7v2c0,0.2,0.2,0.3,0.3,0.3
		c0.1,0,0.2,0,0.2-0.1l2.2-2.2v0h4.7c0.9,0,1.7-0.8,1.7-1.7v-7C25.5,10.6,24.8,9.8,23.8,9.8z M16.9,15.7c-0.4,0-0.7-0.3-0.7-0.7
		c0-0.4,0.3-0.7,0.8-0.7c0,0,0,0,0,0l0,0c0.4,0,0.7,0.4,0.7,0.8C17.7,15.4,17.3,15.8,16.9,15.7z M19.2,15.7c-0.4,0-0.7-0.3-0.7-0.8
		c0-0.4,0.3-0.7,0.7-0.7l0,0c0.4,0,0.7,0.3,0.7,0.8C20,15.4,19.6,15.8,19.2,15.7z M21.5,15.7c-0.4,0-0.7-0.3-0.7-0.8
		c0-0.4,0.3-0.7,0.8-0.7l0,0c0.4,0,0.7,0.3,0.7,0.8C22.2,15.4,21.9,15.8,21.5,15.7z"/>
</g>
</svg>
