<?xml version="1.0" encoding="utf-8"?>
<!-- Generator: Adobe Illustrator 21.0.0, SVG Export Plug-In . SVG Version: 6.00 Build 0)  -->
<svg version="1.1" id="Camada_1" xmlns="http://www.w3.org/2000/svg" xmlns:xlink="http://www.w3.org/1999/xlink" x="0px" y="0px"
	 viewBox="0 0 23.3 24.4" style="enable-background:new 0 0 23.3 24.4;" xml:space="preserve">
<style type="text/css">
	.st0{fill:#25AE88;}
</style>
<g>
	<path class="st0" d="M17.4,16c-0.4-0.6-0.9-1-1.5-1.1s-1.3,0-1.9,0.4l-1.9,1.2c-0.1-0.1-0.2-0.2-0.3-0.3c-0.2-0.1-0.3-0.2-0.4-0.4
		C10.1,14.6,9,13.1,8,11.3C7.5,10.4,7.3,9.7,7.1,9c0.5-0.3,1-0.6,1.4-0.9C8.7,8,8.8,7.9,9,7.8c1.3-0.8,1.6-2.1,0.7-3.4L8.6,2.8
		C8.5,2.6,8.3,2.4,8.2,2.2C8,1.8,7.7,1.5,7.4,1.1C7,0.5,6.5,0.2,5.9,0C5.3-0.1,4.6,0,4,0.4l0,0L1.9,1.7c-0.8,0.5-1.3,1.2-1.6,2
		C-0.1,5.1,0,6.5,0.2,7.4c0.4,2.3,1.1,4.5,2.5,7c1.7,3,3.9,5.5,6.6,7.6c1.1,0.8,2.5,1.7,4.2,2.2c0.1,0,0.2,0.1,0.3,0.1
		c1.2,0.2,2.2,0,3.2-0.6l0,0c0.3-0.3,0.7-0.5,1.1-0.7c0.3-0.2,0.5-0.3,0.8-0.5c0.6-0.4,1-0.9,1.1-1.5s0-1.2-0.4-1.8L17.4,16z
		 M18.1,21.5C18,21.5,18,21.5,18.1,21.5c-0.2,0.2-0.5,0.3-0.8,0.5c-0.4,0.2-0.8,0.5-1.2,0.8c-0.6,0.4-1.3,0.5-2.1,0.4
		c-0.1,0-0.2,0-0.2-0.1c-1.5-0.4-2.8-1.2-3.7-1.9c-2.6-1.9-4.7-4.3-6.2-7.1c-1.3-2.3-2-4.4-2.4-6.6C1.3,6.2,1.3,5.2,1.6,4.3
		c0.2-0.6,0.5-1,1-1.3l2.1-1.3C5,1.5,5.3,1.5,5.5,1.5C5.8,1.6,6,1.8,6.2,2l0,0c0.2,0.3,0.5,0.7,0.7,1.1C7,3.3,7.2,3.5,7.3,3.7
		l1.1,1.6c0.4,0.6,0.3,1.1-0.3,1.5C7.9,6.9,7.7,7,7.6,7.1C7.1,7.4,6.6,7.7,6.1,8l0,0C5.6,8.3,5.6,8.8,5.6,9.1l0,0
		C5.8,10,6.1,10.9,6.7,12l0,0c1,1.9,2.2,3.5,3.6,4.8c0.2,0.2,0.4,0.3,0.6,0.5c0.2,0.1,0.3,0.2,0.4,0.4c0,0,0,0,0.1,0
		c0.2,0.1,0.3,0.2,0.5,0.2c0.4,0.1,0.7-0.1,0.8-0.2l2.1-1.3c0.2-0.1,0.5-0.3,0.8-0.2c0.3,0.1,0.5,0.3,0.7,0.5l2.2,3.3
		C18.8,20.6,18.7,21.1,18.1,21.5L18.1,21.5z M13.3,6c1.3,0.5,2.4,1.3,3.1,2.4c0.8,1.1,1.1,2.4,1.1,3.7c0,0.3,0.2,0.6,0.6,0.7h0.1
		c0.4,0,0.7-0.3,0.7-0.6c0.1-1.6-0.4-3.2-1.3-4.5s-2.2-2.4-3.8-3c-0.4-0.1-0.8,0-0.9,0.4C12.8,5.5,12.9,5.9,13.3,6L13.3,6z
		 M23.3,12.9c0.1-2.6-0.6-5.2-2.1-7.4c-1.5-2.2-3.7-3.9-6.2-4.9c-0.4-0.1-0.8,0-0.9,0.4c-0.1,0.3,0,0.7,0.4,0.9
		c2.3,0.9,4.2,2.4,5.5,4.4c1.4,2,2,4.3,1.9,6.6c0,0.3,0.2,0.6,0.6,0.7h0.1C22.9,13.6,23.3,13.3,23.3,12.9L23.3,12.9z"/>
</g>
</svg>
