<?xml version="1.0" encoding="utf-8"?>
<!-- Generator: Adobe Illustrator 21.0.0, SVG Export Plug-In . SVG Version: 6.00 Build 0)  -->
<svg version="1.1" id="Camada_1" xmlns="http://www.w3.org/2000/svg" xmlns:xlink="http://www.w3.org/1999/xlink" x="0px" y="0px"
	 viewBox="0 0 19.2 18.5" style="enable-background:new 0 0 19.2 18.5;" xml:space="preserve">
<style type="text/css">
	.st0{fill:#FFFFFF;}
	.st1{fill:#25AE88;}
</style>
<g>
	<path class="st0" d="M15.8,13.1l-0.6,0.6c-1.8,1.8-3.9,0.9-5.8-0.9L6,9.6C4.2,7.8,3.2,5.8,5.1,4l0.6-0.6C6,3.1,6.4,3.1,6.8,3.2
		c0.8,0.4,1.8,2,1.8,2c0.2,0.4,0.2,0.8-0.1,1c0,0-0.6,0.5-0.7,0.6C7.4,7.4,7.4,7.9,8,8.5l2.6,2.5c0.6,0.5,1.1,0.6,1.7,0.2
		c0.1-0.1,0.7-0.7,0.7-0.7c0.2-0.4,0.6-0.3,1-0.1c0,0,1.6,0.9,2,1.7C16.2,12.4,16.1,12.9,15.8,13.1z"/>
	<path class="st1" d="M9.9,0C4.7,0,0.4,4.1,0.4,9.1c0,1.7,0.5,3.3,1.3,4.6L0,18.5l5.4-1.4c1.3,0.7,2.8,1,4.4,1
		c5.2,0,9.4-4.1,9.4-9.1C19.4,4.1,15.2,0,9.9,0z M15.8,13.1l-0.6,0.6c-1.8,1.8-3.9,0.9-5.8-0.9L6,9.6C4.2,7.8,3.2,5.8,5.1,4l0.6-0.6
		C6,3.1,6.4,3.1,6.8,3.2c0.8,0.4,1.8,2,1.8,2c0.2,0.4,0.2,0.8-0.1,1c0,0-0.6,0.5-0.7,0.6C7.4,7.4,7.4,7.9,8,8.5l2.6,2.5
		c0.6,0.5,1.1,0.6,1.7,0.2c0.1-0.1,0.7-0.7,0.7-0.7c0.2-0.4,0.6-0.3,1-0.1c0,0,1.6,0.9,2,1.7C16.2,12.4,16.1,12.9,15.8,13.1z"/>
</g>
</svg>
