<?xml version="1.0" encoding="utf-8"?>
<!-- Generator: Adobe Illustrator 21.0.0, SVG Export Plug-In . SVG Version: 6.00 Build 0)  -->
<svg version="1.1" id="Camada_1" xmlns="http://www.w3.org/2000/svg" xmlns:xlink="http://www.w3.org/1999/xlink" x="0px" y="0px"
	 viewBox="0 0 28.8 27.6" style="enable-background:new 0 0 28.8 27.6;" xml:space="preserve">
<style type="text/css">
	.st0{fill:#FFFFFF;}
	.st1{fill:#25AE88;}
</style>
<path class="st0" d="M8.6,19.5L5,20.4l1-3.5c-0.7-1.1-1.1-2.4-1.1-3.8c0-4.1,3.5-7.5,7.8-7.5s7.8,3.4,7.8,7.5s-3.5,7.5-7.8,7.5
	C11.2,20.6,9.8,20.2,8.6,19.5L8.6,19.5z M23.8,21.8L20.6,21c-1.1,0.7-2.4,1.1-3.8,1.1c-1,0-1.9-0.2-2.8-0.6c4.3-0.5,7.7-4.1,7.7-8.4
	c0-1.2-0.3-2.4-0.8-3.5c1.8,1.2,3,3.3,3,5.6c0,1.2-0.4,2.4-1,3.4L23.8,21.8z"/>
<path class="st1" d="M14.4,0C6.5,0,0,6.2,0,13.8s6.4,13.8,14.4,13.8c7.9,0,14.4-6.2,14.4-13.8C28.8,6.1,22.3,0,14.4,0L14.4,0z
	 M8.6,19.4L5,20.3l1-3.5c-0.7-1.1-1.1-2.4-1.1-3.8c0-4.1,3.5-7.5,7.8-7.5s7.8,3.4,7.8,7.5s-3.5,7.5-7.8,7.5
	C11.2,20.5,9.8,20.1,8.6,19.4L8.6,19.4z M23.8,21.7l-3.2-0.8c-1.1,0.7-2.4,1.1-3.8,1.1c-1,0-1.9-0.2-2.8-0.6
	c4.3-0.5,7.7-4.1,7.7-8.4c0-1.2-0.3-2.4-0.8-3.5c1.8,1.2,3,3.3,3,5.6c0,1.2-0.4,2.4-1,3.4L23.8,21.7z"/>
</svg>
