<?xml version="1.0" encoding="utf-8"?>
<!-- Generator: Adobe Illustrator 21.0.0, SVG Export Plug-In . SVG Version: 6.00 Build 0)  -->
<svg version="1.1" id="Camada_1" xmlns="http://www.w3.org/2000/svg" xmlns:xlink="http://www.w3.org/1999/xlink" x="0px" y="0px"
	 viewBox="0 0 33.4 32" style="enable-background:new 0 0 33.4 32;" xml:space="preserve">
<style type="text/css">
	.st0{fill:#FFFFFF;}
	.st1{fill:#25AE88;}
</style>
<g>
	<path class="st0" d="M25.9,10.2L15.2,21.7C15,21.9,14.8,22,14.6,22s-0.3-0.1-0.5-0.2l-6.7-5.1C7,16.4,7,15.9,7.3,15.6
		c0.3-0.4,0.8-0.4,1.1-0.1l6.1,4.7l10.2-11c0.3-0.3,0.8-0.3,1.1,0C26.2,9.3,26.2,9.9,25.9,10.2z"/>
	<path class="st1" d="M16.7,0C7.5,0,0,7.2,0,16s7.5,16,16.7,16c9.2,0,16.7-7.2,16.7-16C33.3,7.2,25.9,0,16.7,0z M25.9,10.2
		L15.2,21.7C15,21.9,14.8,22,14.6,22s-0.3-0.1-0.5-0.2l-6.7-5.1C7,16.4,7,15.9,7.3,15.6c0.3-0.4,0.8-0.4,1.1-0.1l6.1,4.7l10.2-11
		c0.3-0.3,0.8-0.3,1.1,0C26.2,9.3,26.2,9.9,25.9,10.2z"/>
</g>
</svg>
