<?xml version="1.0" encoding="utf-8"?>
<!-- Generator: Adobe Illustrator 21.0.0, SVG Export Plug-In . SVG Version: 6.00 Build 0)  -->
<svg version="1.1" id="Camada_1" xmlns="http://www.w3.org/2000/svg" xmlns:xlink="http://www.w3.org/1999/xlink" x="0px" y="0px"
	 viewBox="0 0 20.9 15.2" style="enable-background:new 0 0 20.9 15.2;" xml:space="preserve">
<style type="text/css">
	.st0{fill:#25AE88;}
</style>
<path class="st0" d="M2,4.7c0.3,0.2,1,0.7,2.3,1.6s2.3,1.5,3,2c0.1,0.1,0.2,0.2,0.5,0.3C8,8.8,8.3,8.9,8.4,9C8.6,9.1,8.8,9.2,9,9.4
	c0.2,0.1,0.5,0.2,0.7,0.3c0.2,0.1,0.4,0.1,0.6,0.1l0,0c0.2,0,0.4,0,0.6-0.1s0.4-0.2,0.7-0.3C11.8,9.3,12,9.1,12.2,9s0.4-0.2,0.6-0.4
	c0.2-0.2,0.4-0.3,0.5-0.3c0.7-0.5,2.5-1.7,5.4-3.6c0.6-0.4,1-0.8,1.4-1.3s0.6-1.1,0.6-1.7c0-0.5-0.2-0.9-0.5-1.2
	C19.8,0.2,19.4,0,18.9,0H2.1c-0.6,0-1,0.2-1.4,0.6C0.4,1,0.2,1.5,0.2,2s0.2,1,0.6,1.5C1.1,3.9,1.5,4.4,2,4.7L2,4.7z M19.7,5.8
	c-2.5,1.6-4.4,2.9-5.7,3.8c-0.4,0.3-0.8,0.5-1.1,0.7c-0.3,0.2-0.6,0.3-1.1,0.5s-0.9,0.3-1.3,0.3l0,0c-0.4,0-0.8-0.1-1.3-0.3
	c-0.4-0.2-0.8-0.4-1.1-0.5C7.8,10.1,7.5,9.9,7,9.6c-1-0.7-2.9-2-5.7-3.8c-0.4-0.3-0.8-0.6-1.2-1v8.7c0,0.5,0.2,0.9,0.5,1.2
	C1,15,1.4,15.2,1.9,15.2H19c0.5,0,0.9-0.2,1.3-0.5s0.5-0.8,0.5-1.2V4.8C20.5,5.2,20.1,5.6,19.7,5.8L19.7,5.8z"/>
</svg>
