<?xml version="1.0" encoding="utf-8"?>
<!-- Generator: Adobe Illustrator 21.0.0, SVG Export Plug-In . SVG Version: 6.00 Build 0)  -->
<svg version="1.1"
	 id="Camada_1" xmlns:cc="http://creativecommons.org/ns#" xmlns:dc="http://purl.org/dc/elements/1.1/" xmlns:inkscape="http://www.inkscape.org/namespaces/inkscape" xmlns:rdf="http://www.w3.org/1999/02/22-rdf-syntax-ns#" xmlns:sodipodi="http://sodipodi.sourceforge.net/DTD/sodipodi-0.dtd" xmlns:svg="http://www.w3.org/2000/svg"
	 xmlns="http://www.w3.org/2000/svg" xmlns:xlink="http://www.w3.org/1999/xlink" x="0px" y="0px" viewBox="0 0 58.1 44"
	 style="enable-background:new 0 0 58.1 44;" xml:space="preserve">
<style type="text/css">
	.st0{fill:#7C0D27;}
</style>
<g>
	<path class="st0" d="M0.9,5.1c-1.2-1.2-1.2-3.1,0-4.2C1.5,0.3,2.3,0,3.2,0c0.8,0,1.5,0.4,2,1l52,37.9c1.2,1.2,1.2,3.1,0,4.2
		c-0.6,0.6-1.4,0.9-2.3,0.9c-0.8,0-1.5-0.4-2-1L0.9,5.1z"/>
</g>
<g>
	<path class="st0" d="M57.2,5.1c1.2-1.2,1.2-3.1,0-4.2C56.6,0.3,55.8,0,54.9,0c-0.8,0-1.5,0.4-2,1l-52,37.9c-1.2,1.2-1.2,3.1,0,4.2
		c0.6,0.6,1.4,0.9,2.3,0.9c0.8,0,1.5-0.4,2-1L57.2,5.1z"/>
</g>
</svg>
