<?xml version="1.0" encoding="utf-8"?>
<!-- Generator: Adobe Illustrator 21.0.0, SVG Export Plug-In . SVG Version: 6.00 Build 0)  -->
<svg version="1.1"
	 id="Camada_1" xmlns:cc="http://creativecommons.org/ns#" xmlns:dc="http://purl.org/dc/elements/1.1/" xmlns:inkscape="http://www.inkscape.org/namespaces/inkscape" xmlns:rdf="http://www.w3.org/1999/02/22-rdf-syntax-ns#" xmlns:sodipodi="http://sodipodi.sourceforge.net/DTD/sodipodi-0.dtd" xmlns:svg="http://www.w3.org/2000/svg"
	 xmlns="http://www.w3.org/2000/svg" xmlns:xlink="http://www.w3.org/1999/xlink" x="0px" y="0px" viewBox="0 0 58.1 44"
	 style="enable-background:new 0 0 58.1 44;" xml:space="preserve">
<style type="text/css">
	.st0{fill:#006A00;}
</style>
<g transform="translate(0,-952.36218)">
	<path class="st0" d="M54.9,952.4c-0.8,0-1.5,0.4-2,1c-10.6,11.1-22.6,24.8-33.2,36L4.8,978c-1.3-1-3.2-0.8-4.2,0.5
		s-0.8,3.2,0.5,4.2c0,0,0,0,0.1,0l17,13c1.2,0.9,2.9,0.8,4-0.3c11.2-11.7,24-26.5,35-38c1.2-1.2,1.2-3.1,0-4.2
		C56.6,952.6,55.8,952.3,54.9,952.4z"/>
</g>
</svg>
